<?xml version="1.0" standalone="no"?>
<!DOCTYPE svg PUBLIC "-//W3C//DTD SVG 20010904//EN"
 "http://www.w3.org/TR/2001/REC-SVG-20010904/DTD/svg10.dtd">
<svg version="1.0" xmlns="http://www.w3.org/2000/svg"
 width="1350.000000pt" height="978.000000pt" viewBox="0 0 1350.000000 978.000000"
 preserveAspectRatio="xMidYMid meet">

<g transform="translate(0.000000,978.000000) scale(0.100000,-0.100000)"
fill="#000000" stroke="none">
<path d="M0 4890 l0 -4890 6750 0 6750 0 0 4890 0 4890 -6750 0 -6750 0 0
-4890z m6945 4840 c871 -39 1354 -140 1860 -391 474 -234 893 -596 1238 -1071
369 -506 654 -1197 781 -1888 70 -382 126 -943 126 -1266 l0 -94 -1008 0
-1009 0 -7 228 c-22 766 -120 1276 -326 1709 -226 475 -536 773 -987 952 -188
74 -391 120 -648 146 -309 30 -511 37 -1327 42 l-838 5 0 -1541 0 -1541 -975
0 -975 0 0 2360 0 2360 1938 0 c1109 0 2031 -4 2157 -10z m6545 -3882 c0 -10
-56 -12 -257 -8 l-258 5 255 5 c140 3 256 7 258 8 1 1 2 -4 2 -10z m-12980
-298 c0 -6 -90 -10 -250 -10 -160 0 -250 4 -250 10 0 6 90 10 250 10 160 0
250 -4 250 -10z m12977 -6 c-3 -3 -12 -4 -19 -1 -8 3 -5 6 6 6 11 1 17 -2 13
-5z m-13424 -581 c-7 -2 -21 -2 -30 0 -10 3 -5 5 12 5 17 0 24 -2 18 -5z
m13415 -10 c-10 -2 -26 -2 -35 0 -10 3 -2 5 17 5 19 0 27 -2 18 -5z m-8678
-1648 l0 -1595 943 0 c927 0 1125 5 1390 35 469 54 857 223 1123 489 142 143
235 284 335 506 213 477 318 1058 336 1868 l6 292 1009 0 1008 0 0 -223 c0
-652 -96 -1317 -267 -1842 -171 -527 -412 -1000 -706 -1385 -423 -553 -908
-893 -1622 -1137 -355 -121 -657 -176 -1220 -225 -88 -7 -795 -12 -2207 -15
l-2078 -4 0 2415 0 2416 975 0 975 0 0 -1595z m-4747 1068 c-7 -2 -19 -2 -25
0 -7 3 -2 5 12 5 14 0 19 -2 13 -5z m13437 -3 c0 -6 -88 -10 -245 -10 -157 0
-245 4 -245 10 0 6 88 10 245 10 157 0 245 -4 245 -10z m-13215 -300 c-137 -3
-253 -4 -258 -2 -31 13 35 16 255 12 l253 -5 -250 -5z"/>
</g>
</svg>
